<svg width="36" height="36" viewBox="0 0 36 36" fill="none" xmlns="http://www.w3.org/2000/svg">
<path d="M9.05632 23.7204C8.74005 23.453 8.26676 23.4924 7.99929 23.8089C7.89353 23.934 7.79115 24.0597 7.69504 24.1824C7.43979 24.5087 7.49724 24.9801 7.82336 25.2353C7.96054 25.3429 8.12346 25.3948 8.28518 25.3948C8.50794 25.3948 8.72837 25.2961 8.87624 25.1071C8.96076 24.9992 9.05105 24.8882 9.14477 24.7775C9.41218 24.4611 9.37266 23.9879 9.05632 23.7204Z" fill="black"/>
<path d="M18 4.499C18.1284 4.499 18.2558 4.50314 18.3788 4.51116C18.3957 4.51236 18.4122 4.51271 18.4287 4.51271C18.8205 4.51271 19.1503 4.20839 19.1765 3.81188C19.2035 3.39844 18.8905 3.04138 18.4771 3.01424C18.3216 3.00411 18.1611 2.99884 18 2.99884C17.5858 2.99884 17.25 3.3348 17.25 3.74888C17.2499 4.16324 17.5858 4.499 18 4.499Z" fill="black"/>
<path d="M35.2499 34.4997H34.1249V32.2495C34.1249 29.2259 33.2829 26.2781 31.6897 23.7249C30.2679 21.4465 28.3025 19.5618 25.9788 18.2364C26.2782 17.4502 26.5198 16.3918 26.7723 14.8578C26.8125 14.6139 26.8551 14.4093 26.9045 14.1725C26.957 13.9209 27.0183 13.627 27.0891 13.2205H27.6097C28.0238 13.2205 28.3597 12.8848 28.3597 12.4705C28.3597 11.6624 28.0373 10.9652 27.474 10.3738C27.4759 10.3566 27.4781 10.3393 27.4797 10.323C27.5241 9.93503 27.5376 9.8129 27.5408 9.75032C27.5988 8.6641 27.5285 7.80704 27.3262 7.13034C26.6758 4.95249 25.4415 3.13543 23.7568 1.8754C22.1159 0.647923 20.1249 -0.00100708 17.9995 -0.00100708C15.8742 -0.00100708 13.8832 0.647923 12.2419 1.87554C10.5573 3.13564 9.32305 4.95263 8.67264 7.13027C8.47386 7.79516 8.40256 8.63204 8.45467 9.68809C8.45825 9.76185 8.47646 9.94741 8.51429 10.3244C8.51612 10.3422 8.51795 10.3606 8.51978 10.3791C7.95944 10.9694 7.63895 11.6648 7.63895 12.4706C7.63895 12.8848 7.97484 13.2206 8.38899 13.2206H8.9096C8.97935 13.6213 9.03933 13.9098 9.09446 14.1738C9.14375 14.4102 9.18643 14.6144 9.22644 14.8582C9.47893 16.3921 9.72053 17.4503 10.0199 18.2365C7.69633 19.5619 5.73083 21.4465 4.30915 23.7251C2.71618 26.2782 1.87402 29.226 1.87402 32.2495V34.4997H0.748995C0.334844 34.4997 -0.000976562 34.8355 -0.000976562 35.2497C-0.000976562 35.6638 0.334844 35.9998 0.749066 35.9998H2.62414H8.24914H27.7495H33.3749H35.25C35.6643 35.9998 36 35.6638 36 35.2497C35.9999 34.8355 35.6643 34.4997 35.2499 34.4997ZM10.11 7.55961C11.2266 3.82135 14.2497 1.49908 17.9995 1.49908C21.7493 1.49908 24.7725 3.82135 25.889 7.55996C26.0202 7.99872 26.0763 8.59632 26.0567 9.33497C25.6117 9.09724 25.1156 8.88756 24.5792 8.70545C24.5308 8.23272 24.4007 7.82385 24.38 7.76085C23.7453 5.83522 22.4748 4.35398 20.8026 3.58987C20.4257 3.41788 19.9808 3.58354 19.8087 3.96036C19.6365 4.3371 19.8023 4.78219 20.1791 4.95432C21.467 5.54278 22.4528 6.70627 22.9552 8.22984C22.9585 8.23997 22.962 8.25122 22.9656 8.26289C21.4336 7.9289 19.7141 7.76788 17.9993 7.76788C14.9774 7.76788 11.9399 8.26739 9.94245 9.33462C9.92283 8.59428 9.97901 7.9978 10.11 7.55961ZM9.3684 11.7204C9.8393 10.9748 10.9311 10.473 11.6498 10.2104C13.2883 9.61145 15.6027 9.26789 17.9994 9.26789C20.3961 9.26789 22.7105 9.61137 24.3489 10.2104C25.0676 10.473 26.1595 10.9747 26.6303 11.7204H9.3684ZM25.5651 13.2205C25.5182 13.4725 25.4758 13.6762 25.4361 13.8662C25.3854 14.1093 25.3375 14.3389 25.2923 14.6144C24.6624 18.4402 24.2651 18.6927 22.593 19.7564C22.3138 19.9339 21.9982 20.1346 21.647 20.3724C19.2264 21.761 16.7726 21.7611 14.3521 20.3727C14.0007 20.1348 13.6851 19.9341 13.4059 19.7565C11.7336 18.6927 11.3364 18.44 10.7066 14.6144C10.6613 14.3393 10.6135 14.1101 10.5629 13.8675C10.5232 13.6772 10.4808 13.4733 10.4337 13.2205H25.5651ZM26.9995 34.4997H8.99911V31.4995H17.2495V32.9997C17.2495 33.4138 17.5853 33.7498 17.9995 33.7498C18.4136 33.7498 18.7496 33.4138 18.7496 32.9997V31.4995H26.9996V34.4997H26.9995ZM10.3876 29.9994L12.2627 28.4995H17.2496V29.9994H10.3876ZM18.7496 29.9994V28.4995H23.7363L25.6116 29.9994H18.7496ZM32.6246 34.4995H28.4994V30.7843C28.4998 30.7726 28.5011 30.7611 28.5011 30.7494C28.5011 30.5167 28.3942 30.3094 28.2276 30.1718C28.2265 30.1709 28.2256 30.1702 28.2245 30.1694C28.2126 30.1597 28.2012 30.1493 28.1887 30.1403L24.4676 27.1639C24.3348 27.0575 24.1695 26.9995 23.9992 26.9995H11.9995C11.8292 26.9995 11.6639 27.0575 11.531 27.1639L7.7807 30.1638C7.77944 30.1649 7.77831 30.166 7.77712 30.167C7.77051 30.1723 7.76432 30.1781 7.75792 30.1836C7.74738 30.1929 7.73697 30.2021 7.72705 30.2118C7.72073 30.2177 7.71475 30.2241 7.70877 30.2304C7.69907 30.2404 7.68986 30.2507 7.68093 30.261C7.6753 30.2675 7.66975 30.2739 7.66433 30.2806C7.65512 30.292 7.64647 30.3038 7.63804 30.3158C7.63361 30.322 7.62904 30.3278 7.62475 30.334C7.61343 30.3512 7.60274 30.3688 7.59289 30.3866C7.58804 30.3954 7.58375 30.4045 7.57918 30.4136C7.57419 30.4237 7.56906 30.4339 7.56442 30.4443C7.55978 30.4547 7.55549 30.4653 7.55127 30.4759C7.54754 30.4854 7.54403 30.4951 7.54065 30.5048C7.53692 30.5159 7.53306 30.5268 7.52982 30.5379C7.52638 30.5496 7.52349 30.5616 7.52068 30.5735C7.5171 30.5884 7.51386 30.6036 7.51119 30.6189C7.50866 30.6334 7.50627 30.6478 7.50451 30.6623C7.50345 30.6713 7.50289 30.6804 7.50212 30.6895C7.50092 30.7041 7.50022 30.7189 7.49994 30.7337C7.4998 30.739 7.4991 30.7441 7.4991 30.7494V34.4997H3.37411V32.2495C3.37411 26.9587 6.18281 22.1511 10.748 19.5458C11.0819 19.9559 11.4846 20.2799 11.993 20.6253C11.2564 21.0069 10.5528 21.4596 9.9011 21.9723C9.57555 22.2285 9.51929 22.7 9.77545 23.0255C9.92346 23.2136 10.1433 23.3117 10.3653 23.3117C10.5276 23.3117 10.6912 23.2592 10.8286 23.151C11.419 22.6865 12.0575 22.277 12.7263 21.9342L13.4409 21.5678C13.4719 21.5885 13.5018 21.6082 13.5331 21.6294C13.5481 21.6395 13.5634 21.6492 13.5791 21.6583C15.028 22.4948 16.5144 22.9192 17.997 22.9194C17.9978 22.9194 17.9984 22.9194 17.9991 22.9194C19.4824 22.9194 20.9698 22.4951 22.4196 21.658C22.4353 21.649 22.4505 21.6395 22.4655 21.6291C22.8078 21.397 23.1213 21.1978 23.3979 21.0218C24.2072 20.507 24.7937 20.107 25.2507 19.5456C29.816 22.151 32.6246 26.9585 32.6246 32.2493V34.4995Z" fill="black"/>
</svg>
