<svg width="36" height="34" viewBox="0 0 36 34" fill="none" xmlns="http://www.w3.org/2000/svg">
<path d="M33.4219 16.2109V11.0547C33.4219 9.27769 31.9762 7.83203 30.1992 7.83203H26.5898V2.93359C26.5898 1.86735 25.7225 1 24.6562 1H12.668C11.6017 1 10.7344 1.86735 10.7344 2.93359V5.25391H8.80078C7.73454 5.25391 6.86719 6.12125 6.86719 7.1875V7.83203H6.22266C4.44566 7.83203 3 9.27769 3 11.0547V30.7773C3 32.5543 4.44566 34 6.22266 34H25.9453C27.5015 34 28.8037 32.8912 29.103 31.4219H30.1992C31.9762 31.4219 33.4219 29.9762 33.4219 28.1992V26.5234H34.0664C35.1327 26.5234 36 25.6561 36 24.5898V18.7891C36 17.3676 34.8434 16.2109 33.4219 16.2109ZM34.7109 18.7891C34.7109 19.5011 34.1339 20.0781 33.4219 20.0781V17.5C34.1326 17.5 34.7109 18.0783 34.7109 18.7891ZM30.1992 9.12109C31.2655 9.12109 32.1328 9.98844 32.1328 11.0547V20.0781H29.168V16.2109C29.168 14.6547 28.0592 13.3526 26.5898 13.0532V9.12109H30.1992ZM12.0234 2.93359C12.0234 2.57809 12.3125 2.28906 12.668 2.28906H24.6562C25.0117 2.28906 25.3008 2.57809 25.3008 2.93359V12.9883H22.3359V7.1875C22.3359 6.12125 21.4686 5.25391 20.4023 5.25391H12.0234V2.93359ZM18.4688 12.9883V6.54297H20.4023C20.7578 6.54297 21.0469 6.832 21.0469 7.1875V12.9883H18.4688ZM14.6016 12.9883V6.54297H17.1797V12.9883H14.6016ZM8.15625 7.1875C8.15625 6.832 8.44528 6.54297 8.80078 6.54297H13.3125V12.9883H8.15625V7.1875ZM6.22266 9.12109H6.86719V12.9883H6.36063C5.29539 12.9883 4.28906 12.2169 4.28906 11.0547C4.28906 9.98844 5.15641 9.12109 6.22266 9.12109ZM25.9453 32.7109H6.22266C5.15641 32.7109 4.28906 31.8436 4.28906 30.7773V13.593C4.86536 14.0223 5.5892 14.2773 6.36063 14.2773H25.9453C27.0116 14.2773 27.8789 15.1447 27.8789 16.2109V20.0781H23.3672C22.3009 20.0781 21.4336 20.9455 21.4336 22.0117V24.5898C21.4336 25.6561 22.3009 26.5234 23.3672 26.5234H27.8789V30.7773C27.8789 31.8436 27.0116 32.7109 25.9453 32.7109ZM32.1328 28.1992C32.1328 29.2655 31.2655 30.1328 30.1992 30.1328H29.168V26.5234H32.1328V28.1992ZM34.0664 25.2344H23.3672C23.0117 25.2344 22.7227 24.9453 22.7227 24.5898V22.0117C22.7227 21.6562 23.0117 21.3672 23.3672 21.3672H33.4219C33.8819 21.3672 34.3232 21.2468 34.7109 21.022V24.5898C34.7109 24.9453 34.4219 25.2344 34.0664 25.2344Z" fill="black"/>
<path d="M24.5 23C24.224 23 24 23.224 24 23.5C24 23.776 24.224 24 24.5 24C24.776 24 25 23.776 25 23.5C25 23.224 24.776 23 24.5 23Z" fill="#009401"/>
<path d="M10.5 12C10.7762 12 11 11.7016 11 11.3333V8.66667C11 8.29844 10.7762 8 10.5 8C10.2238 8 10 8.29844 10 8.66667V11.3333C10 11.7016 10.2238 12 10.5 12Z" fill="#009401"/>
<path d="M29.5455 23H27.4545C27.2035 23 27 23.2238 27 23.5C27 23.7762 27.2035 24 27.4545 24H29.5455C29.7965 24 30 23.7762 30 23.5C30 23.2238 29.7965 23 29.5455 23Z" fill="#009401"/>
</svg>
